<svg width="7" height="7" viewBox="0 0 7 7" fill="none" xmlns="http://www.w3.org/2000/svg">
<path fill-rule="evenodd" clip-rule="evenodd" d="M5.46258 1.9105C5.48708 1.88603 5.50651 1.85698 5.51978 1.825C5.53305 1.79302 5.53989 1.75874 5.53991 1.72412C5.53994 1.68949 5.53314 1.65521 5.51991 1.62321C5.50668 1.59121 5.48728 1.56214 5.46281 1.53764C5.43834 1.51314 5.40929 1.49371 5.37731 1.48044C5.34533 1.46717 5.31105 1.46033 5.27643 1.46031C5.24181 1.46028 5.20752 1.46708 5.17552 1.48031C5.14353 1.49354 5.11445 1.51295 5.08995 1.53741L3.5 3.12737L1.9105 1.53741C1.86102 1.48794 1.79392 1.46014 1.72395 1.46014C1.65399 1.46014 1.58689 1.48794 1.53741 1.53741C1.48794 1.58689 1.46014 1.65399 1.46014 1.72395C1.46014 1.79392 1.48794 1.86102 1.53741 1.9105L3.12737 3.5L1.53741 5.0895C1.51292 5.11399 1.49348 5.14307 1.48023 5.17508C1.46697 5.20709 1.46014 5.24139 1.46014 5.27604C1.46014 5.31068 1.46697 5.34499 1.48023 5.37699C1.49348 5.409 1.51292 5.43808 1.53741 5.46258C1.58689 5.51205 1.65399 5.53985 1.72395 5.53985C1.7586 5.53985 1.7929 5.53302 1.82491 5.51977C1.85692 5.50651 1.886 5.48708 1.9105 5.46258L3.5 3.87262L5.08995 5.46258C5.13943 5.51199 5.2065 5.53973 5.27643 5.53968C5.34635 5.53964 5.4134 5.51182 5.46281 5.46235C5.51222 5.41288 5.53996 5.3458 5.53991 5.27588C5.53987 5.20595 5.51205 5.13891 5.46258 5.0895L3.87262 3.5L5.46258 1.9105Z" fill="white"/>
</svg>
