<svg width="24" height="24" viewBox="0 0 24 24" fill="none" xmlns="http://www.w3.org/2000/svg">
<g clip-path="url(#clip0_10_138)">
<path d="M14.8159 9.21347C14.7358 9.18356 14.6456 9.21628 14.6032 9.29076L11.4788 14.8065C10.6391 15.0355 10.021 15.8015 10.021 16.7135C10.021 17.8062 10.9074 18.6922 12.0001 18.6922C13.0927 18.6922 13.9787 17.8062 13.9787 16.7135C13.9787 16.3085 13.8569 15.9322 13.6481 15.6187L14.925 9.41119C14.9424 9.32784 14.8958 9.24375 14.8159 9.21347ZM12 17.4848C11.5739 17.4848 11.2284 17.1397 11.2284 16.7135C11.2284 16.2875 11.5739 15.9422 12 15.9422C12.4261 15.9422 12.7717 16.2875 12.7717 16.7135C12.7717 17.1397 12.4262 17.4848 12 17.4848Z" fill="#4ADE80"/>
<path d="M20.4851 7.49559C18.3158 5.3249 15.3115 3.98034 12 3.98071C8.68819 3.98034 5.68416 5.3249 3.51488 7.49559C1.34419 9.66487 -0.000327798 12.6692 3.26644e-07 15.9807C-0.000327798 17.3965 0.246563 18.7567 0.697922 20.0193H2.09841C1.58967 18.7738 1.30786 17.4118 1.30786 15.9807C1.30823 13.0266 2.50345 10.3571 4.43977 8.42048C6.37636 6.48454 9.04519 5.28928 12 5.28857C14.9549 5.28932 17.6233 6.48459 19.5602 8.42048C21.4962 10.3571 22.6918 13.0266 22.6921 15.9807C22.6921 17.4118 22.41 18.7738 21.9012 20.0193H23.302C23.7532 18.7567 24 17.3965 24 15.9807C24.0004 12.6692 22.6559 9.66487 20.4851 7.49559Z" fill="#4ADE80"/>
</g>
<defs>
<clipPath id="clip0_10_138">
<rect width="24" height="24" fill="white"/>
</clipPath>
</defs>
</svg>
