<svg width="14" height="14" viewBox="0 0 14 14" fill="none" xmlns="http://www.w3.org/2000/svg">
<g clip-path="url(#clip0_10_153)">
<path d="M8.30009 13.1409C8.17209 13.3777 7.9839 13.5752 7.75518 13.7128C7.52647 13.8504 7.26562 13.923 6.9999 13.923C6.73417 13.923 6.47332 13.8504 6.24461 13.7128C6.01589 13.5752 5.8277 13.3777 5.6997 13.1409L0.26054 3.0823C0.136271 2.85256 0.0730114 2.59385 0.0769959 2.33167C0.0809794 2.06949 0.152071 1.8129 0.283261 1.58717C0.414453 1.36145 0.601214 1.17438 0.825138 1.04443C1.04906 0.914467 1.30242 0.846096 1.56024 0.846051L12.4396 0.846052C12.6974 0.846097 12.9507 0.914468 13.1747 1.04443C13.3986 1.17439 13.5853 1.36145 13.7165 1.58717C13.8477 1.8129 13.9188 2.0695 13.9228 2.33167C13.9268 2.59385 13.8635 2.85256 13.7393 3.0823L8.30009 13.1409ZM6.56716 12.656C6.60985 12.7349 6.67257 12.8006 6.74878 12.8464C6.82498 12.8923 6.91187 12.9164 7.00039 12.9164C7.08891 12.9164 7.1758 12.8923 7.25201 12.8464C7.32821 12.8006 7.39093 12.7349 7.43362 12.656L12.8728 2.59743C12.914 2.52088 12.9349 2.43475 12.9334 2.3475C12.932 2.26026 12.9082 2.17489 12.8645 2.0998C12.8208 2.02471 12.7587 1.96247 12.6842 1.91921C12.6096 1.87594 12.5253 1.85313 12.4396 1.85302L1.56024 1.85302C1.47444 1.85313 1.39015 1.87594 1.31564 1.9192C1.24113 1.96247 1.17897 2.02471 1.13527 2.0998C1.09157 2.17489 1.06783 2.26025 1.06638 2.3475C1.06493 2.43475 1.08582 2.52088 1.12701 2.59743L6.56716 12.656Z" fill="#4ADE80"/>
<path d="M8.05764 4.80838C7.76109 4.48901 7.23923 4.26723 6.75956 4.25309M6.75956 4.25309C6.18896 4.2366 5.67804 4.51492 5.67804 5.27415C5.67804 6.67213 8.05764 5.97314 8.05764 7.37112C8.05764 8.16872 7.42423 8.51131 6.75956 8.4854M6.75956 4.25309L6.75956 3.4104M5.46149 7.83723C5.74054 8.23771 6.25896 8.46588 6.75956 8.4854M6.75956 8.4854L6.75956 9.46809" stroke="#4ADE80" stroke-width="0.486111" stroke-linecap="round" stroke-linejoin="round"/>
</g>
<defs>
<clipPath id="clip0_10_153">
<rect width="13.8462" height="13.3333" fill="white" transform="translate(13.923 13.923) rotate(-180)"/>
</clipPath>
</defs>
</svg>
