<svg width="27" height="26" viewBox="0 0 27 26" fill="none" xmlns="http://www.w3.org/2000/svg">
<g clip-path="url(#clip0_10_131)">
<path d="M16.0354 24.475C15.7858 24.9368 15.4188 25.3219 14.9728 25.5902C14.5268 25.8585 14.0182 26 13.5 26C12.9818 26 12.4732 25.8585 12.0272 25.5902C11.5812 25.3219 11.2142 24.9368 10.9646 24.475L0.358257 4.86068C0.115932 4.41269 -0.00742528 3.90821 0.000343391 3.39696C0.00811397 2.88571 0.14674 2.38535 0.402563 1.94519C0.658385 1.50502 1.02257 1.14025 1.45922 0.886831C1.89588 0.633411 2.38992 0.500087 2.89267 0.5L24.1073 0.500002C24.6101 0.500089 25.1041 0.633413 25.5408 0.886833C25.9774 1.14025 26.3416 1.50502 26.5974 1.94519C26.8533 2.38535 26.9919 2.88572 26.9997 3.39696C27.0074 3.90821 26.8841 4.41269 26.6417 4.86069L16.0354 24.475ZM12.6562 23.5294C12.7394 23.6832 12.8617 23.8115 13.0103 23.9008C13.1589 23.9901 13.3284 24.0372 13.501 24.0372C13.6736 24.0372 13.843 23.9901 13.9916 23.9008C14.1402 23.8115 14.2625 23.6832 14.3458 23.5294L24.9521 3.91519C25.0324 3.76591 25.0732 3.59796 25.0704 3.42783C25.0675 3.2577 25.0212 3.09124 24.936 2.94481C24.8508 2.79838 24.7296 2.67702 24.5843 2.59265C24.439 2.50828 24.2746 2.4638 24.1073 2.46358L2.89267 2.46358C2.72536 2.4638 2.56099 2.50828 2.4157 2.59265C2.27041 2.67702 2.1492 2.79838 2.06398 2.94481C1.97877 3.09124 1.93247 3.2577 1.92964 3.42783C1.92682 3.59796 1.96756 3.76591 2.04787 3.91518L12.6562 23.5294Z" fill="white"/>
<path d="M15.5623 8.22606C14.984 7.60328 13.9664 7.17081 13.031 7.14325M13.031 7.14325C11.9183 7.11109 10.922 7.65381 10.922 9.13431C10.922 11.8604 15.5623 10.4973 15.5623 13.2234C15.5623 14.7787 14.3271 15.4468 13.031 15.3962M13.031 7.14325L13.031 5.5M10.4998 14.1323C11.0439 14.9132 12.0548 15.3582 13.031 15.3962M13.031 15.3962L13.031 17.3125" stroke="white" stroke-width="0.947917" stroke-linecap="round" stroke-linejoin="round"/>
</g>
<defs>
<clipPath id="clip0_10_131">
<rect width="27" height="26" fill="white" transform="translate(27 26) rotate(-180)"/>
</clipPath>
</defs>
</svg>
